<?xml version="1.0" standalone="no"?>
<!DOCTYPE svg PUBLIC "-//W3C//DTD SVG 20010904//EN"
 "http://www.w3.org/TR/2001/REC-SVG-20010904/DTD/svg10.dtd">
<svg version="1.0" xmlns="http://www.w3.org/2000/svg"
 width="700.000000pt" height="700.000000pt" viewBox="0 0 700.000000 700.000000"
 preserveAspectRatio="xMidYMid meet">
<metadata>
Created by potrace 1.14, written by Peter Selinger 2001-2017
</metadata>
<g transform="translate(0.000000,700.000000) scale(0.100000,-0.100000)"
fill="#000000" stroke="none">
<path d="M3179 6996 c-2 -2 -32 -7 -67 -10 -35 -3 -91 -10 -125 -16 -34 -5
-79 -12 -101 -16 -21 -3 -48 -8 -60 -10 -11 -3 -34 -8 -50 -10 -16 -3 -79 -18
-140 -34 -455 -115 -866 -311 -1244 -592 -54 -40 -102 -77 -108 -83 -7 -6 -45
-39 -85 -73 -89 -75 -293 -280 -375 -377 -291 -344 -509 -731 -651 -1155 -25
-74 -47 -143 -49 -154 -2 -10 -8 -33 -13 -50 -12 -37 -67 -286 -75 -336 -3
-19 -8 -57 -12 -85 -3 -27 -9 -59 -12 -70 -10 -35 -11 -748 -1 -815 25 -172
43 -272 61 -350 11 -47 21 -94 23 -104 25 -117 118 -387 192 -556 128 -289
321 -605 497 -811 213 -248 388 -415 613 -583 109 -81 302 -209 337 -222 9 -3
18 28 34 113 12 65 24 128 27 140 10 44 15 68 21 98 11 56 93 380 114 450 12
39 23 77 25 85 24 105 193 565 266 728 16 35 29 65 29 67 0 8 51 117 126 270
154 317 379 698 559 947 25 35 53 74 62 88 36 49 137 185 143 190 3 3 24 30
47 60 23 30 53 67 65 82 13 14 39 46 58 69 212 262 584 646 866 895 129 114
228 194 380 307 84 62 159 124 168 139 23 38 30 117 14 148 -8 14 -33 36 -56
49 -70 38 -109 26 -249 -76 -100 -72 -297 -226 -313 -243 -3 -3 -43 -38 -90
-79 -369 -322 -699 -661 -988 -1017 -137 -168 -121 -148 -208 -264 -206 -277
-427 -622 -587 -915 -56 -104 -239 -473 -262 -529 -23 -59 -39 -76 -70 -76
-20 0 -30 13 -61 77 -75 158 -171 434 -204 588 -6 28 -13 58 -16 68 -13 41 28
25 132 -52 61 -45 119 -81 131 -81 13 0 32 9 42 19 20 20 20 57 1 111 -12 34
-44 145 -74 260 -14 52 -35 131 -47 175 -27 99 -29 219 -4 290 81 232 286 523
635 900 84 90 385 391 476 475 288 265 320 292 357 288 37 -4 52 -28 62 -103
12 -88 24 -169 31 -219 7 -40 21 -64 43 -71 40 -12 65 11 115 107 86 164 231
376 315 458 61 60 112 95 226 157 330 182 740 352 1105 460 122 35 441 113
468 113 12 0 22 4 22 9 0 9 -168 135 -255 193 -152 99 -381 223 -525 283 -36
15 -78 33 -95 40 -147 65 -479 161 -672 194 -102 18 -108 19 -169 26 -33 4
-68 10 -79 13 -24 6 -690 14 -696 8z"/>
<path d="M5843 6066 c-4 -7 -49 -57 -100 -111 -213 -225 -405 -508 -572 -843
-34 -67 -61 -123 -61 -126 0 -2 -13 -33 -29 -68 -54 -115 -177 -447 -196 -526
-3 -9 -18 -64 -35 -122 -29 -100 -93 -361 -103 -425 -3 -16 -10 -55 -16 -85
-17 -93 -21 -113 -27 -165 -7 -67 -51 -153 -94 -187 -19 -15 -120 -59 -225
-98 -104 -39 -199 -75 -210 -81 -11 -5 -146 -56 -300 -114 -183 -68 -286 -112
-297 -126 -40 -49 -6 -101 75 -114 23 -4 50 -9 60 -11 99 -18 221 -31 381 -38
92 -5 114 -14 121 -52 4 -26 -17 -57 -89 -133 -138 -144 -214 -212 -351 -310
-111 -79 -253 -159 -355 -199 -30 -12 -68 -27 -85 -33 -16 -7 -34 -13 -40 -15
-5 -1 -57 -16 -114 -33 -57 -17 -183 -46 -280 -66 -196 -40 -219 -48 -227 -82
-8 -29 1 -44 92 -146 30 -34 104 -82 201 -130 73 -37 90 -59 78 -97 -9 -27
-33 -39 -96 -45 -30 -3 -72 -7 -94 -10 -43 -5 -95 -10 -190 -20 -33 -3 -71 -8
-85 -10 -14 -2 -54 -7 -90 -10 -36 -3 -83 -8 -105 -10 -22 -2 -69 -7 -105 -10
-158 -15 -189 -47 -235 -235 -2 -8 -27 -94 -55 -190 -67 -226 -126 -444 -135
-495 -4 -22 -11 -47 -16 -56 -7 -13 17 -28 129 -82 280 -135 538 -222 837
-283 149 -30 184 -35 436 -59 89 -9 373 -9 484 -1 85 6 294 31 341 40 12 3 37
7 55 10 38 6 45 8 149 31 541 121 1074 389 1495 750 99 84 314 299 380 380 28
33 53 62 56 65 3 3 43 55 88 115 44 61 84 115 89 120 103 139 276 462 360 675
74 187 164 478 177 575 2 11 10 54 18 95 9 41 18 95 21 120 11 85 16 125 22
160 9 60 13 602 4 665 -5 33 -11 85 -14 115 -4 30 -8 66 -11 80 -2 14 -6 42
-9 63 -21 136 -81 383 -132 534 -170 510 -444 958 -823 1346 -68 70 -128 127
-132 127 -4 0 -12 -6 -16 -14z"/>
</g>
</svg>
