<svg viewBox="0 0 298 77" fill="none" xmlns="http://www.w3.org/2000/svg">
	<g clip-path="url(#clip0_1_8)">
	<path d="M19.1653 71.392C21.4249 57.7528 27.3005 44.9662 36.1821 34.36C39.3896 30.4831 42.9269 26.8904 46.7544 23.622C48.2611 22.3327 49.8324 21.1204 51.4621 19.99C51.7526 19.7274 51.9525 19.3796 52.0329 18.9966C52.1133 18.6136 52.0702 18.215 51.9098 17.858C51.6672 17.5397 51.3178 17.3192 50.9257 17.2369C50.5335 17.1546 50.1248 17.2161 49.7743 17.41C48.0619 18.5811 46.416 19.8464 44.8443 21.2C40.871 24.5761 37.2011 28.2926 33.8764 32.307C29.2373 37.8853 25.3385 44.0377 22.2764 50.612C22.039 51.112 21.8146 51.612 21.6043 52.126C21.5616 52.2223 21.4921 52.3044 21.4041 52.3624C21.316 52.4205 21.2132 52.4521 21.1077 52.4534C21.0022 52.4548 20.8985 52.4259 20.809 52.3702C20.7194 52.3144 20.6478 52.2342 20.6027 52.139C19.4185 49.6585 18.5293 47.048 17.9533 44.361C17.9491 44.3211 17.9567 44.2808 17.9752 44.2451C17.9936 44.2095 18.0222 44.18 18.0573 44.1604C18.0924 44.1409 18.1325 44.132 18.1726 44.1349C18.2127 44.1379 18.251 44.1525 18.2829 44.177L20.4965 45.796C20.6068 45.8773 20.7399 45.922 20.877 45.9237C21.0141 45.9254 21.1483 45.884 21.2606 45.8054C21.3729 45.7268 21.4576 45.615 21.5027 45.4857C21.5479 45.3564 21.5512 45.2162 21.5121 45.085C21.1035 43.73 20.5235 41.664 19.8514 39.032C19.6068 38.0718 19.6702 37.0593 20.0327 36.137C22.4477 30 32.426 21.056 35.484 18.41C35.5724 18.3323 35.6802 18.2798 35.796 18.2581C35.9118 18.2365 36.0313 18.2464 36.142 18.2868C36.2526 18.3272 36.3503 18.3967 36.4247 18.4879C36.4991 18.5791 36.5475 18.6886 36.5647 18.805L37.0916 22.095C37.1134 22.2323 37.1781 22.3592 37.2764 22.4576C37.3747 22.5561 37.5016 22.621 37.6391 22.6432C37.7766 22.6653 37.9175 22.6436 38.0419 22.5811C38.1662 22.5186 38.2676 22.4185 38.3316 22.295C39.4384 20.095 41.4157 16.741 43.3799 15.504C43.4059 15.478 43.4189 15.438 43.459 15.425C49.2976 12.0511 55.6524 9.6592 62.2688 8.345C58.1377 5.06583 53.3736 2.67256 48.2742 1.31476C43.1748 -0.0430449 37.8497 -0.336194 32.6317 0.453632C27.4136 1.24346 22.4149 3.09928 17.9478 5.90512C13.4806 8.71096 9.6412 12.4065 6.66939 16.7608C3.69757 21.1151 1.65726 26.0345 0.675971 31.2117C-0.305322 36.3888 -0.206508 41.7124 0.96624 46.8497C2.13899 51.987 4.36046 56.8276 7.49182 61.069C10.6232 65.3103 14.5971 68.8613 19.1653 71.5C19.1515 71.4653 19.1515 71.4267 19.1653 71.392Z" fill="url(#paint0_linear_1_8)"/>
	<path d="M64.1929 9.975C64.1231 10.1402 64.0248 10.2918 63.9024 10.423C54.7024 19.529 52.1322 33.163 51.4992 37.676C51.4333 38.1355 51.2459 38.5692 50.9562 38.9323C50.6666 39.2955 50.2853 39.5749 49.8515 39.742L39.5046 43.642C39.3551 43.699 39.2276 43.802 39.1405 43.936C39.0534 44.0701 39.0112 44.2283 39.02 44.3878C39.0288 44.5474 39.0881 44.7 39.1894 44.8237C39.2908 44.9474 39.4288 45.0357 39.5837 45.076C41.5515 45.4912 43.5562 45.7073 45.5675 45.721C45.6919 45.726 45.8123 45.7659 45.915 45.8362C46.0177 45.9065 46.0985 46.0042 46.1481 46.1183C46.1976 46.2323 46.214 46.3579 46.1953 46.4808C46.1766 46.6037 46.1235 46.7188 46.0422 46.813C40.2428 53.485 35.5501 54.196 29.7767 55.354C29.6567 55.3772 29.5455 55.4333 29.4557 55.516C29.3659 55.5988 29.3009 55.7048 29.268 55.8223C29.2352 55.9399 29.2357 56.0642 29.2697 56.1814C29.3036 56.2986 29.3696 56.4041 29.4601 56.486C29.8428 56.815 30.0661 57.236 30.4488 57.63C31.2514 58.228 32.123 58.7275 33.045 59.118C33.1753 59.179 33.282 59.2809 33.3488 59.4082C33.4156 59.5354 33.4388 59.681 33.415 59.8227C33.3912 59.9644 33.3215 60.0944 33.2167 60.1928C33.1119 60.2913 32.9778 60.3528 32.8347 60.368L24.1204 61.276C23.8248 61.3094 23.5453 61.428 23.316 61.6173C23.0868 61.8065 22.9176 62.0584 22.8293 62.342C22.1282 64.658 20.4164 70.474 20.2451 71.567C20.2451 71.593 20.2321 71.632 20.2321 71.659C20.2207 71.7301 20.1934 71.7978 20.1523 71.857C20.1112 71.9161 20.0574 71.9654 19.9947 72.001C28.2409 76.483 37.8461 77.7933 46.9944 75.6841C56.1426 73.5749 64.1998 68.1925 69.6425 60.5544C75.0852 52.9164 77.5362 43.5521 76.532 34.2322C75.5279 24.9123 71.1382 16.2827 64.1929 9.975Z" fill="url(#paint1_linear_1_8)"/>
	<path d="M116.591 25.394L116.255 28.452C114.038 28.321 110.917 28.117 109.244 28.117C106.589 28.117 104.606 28.717 104.606 31.465C104.606 33.165 105.307 33.78 107.129 34.246L113.108 35.993C115.587 36.765 117.774 38.468 117.745 42.603C117.774 47.803 113.954 49.212 109.959 49.241C106.605 49.1175 103.263 48.7724 99.9543 48.208L100.29 45.121C103.172 45.504 106.074 45.7277 108.981 45.791C111.84 45.791 113.619 45.325 113.619 42.646C113.688 41.8816 113.467 41.1192 113 40.5098C112.532 39.9004 111.853 39.4886 111.096 39.356L104.752 37.556C101.938 36.784 100.392 35.314 100.392 31.756C100.392 25.889 104.359 24.656 108.179 24.656C110.997 24.6892 113.809 24.936 116.591 25.394Z" fill="white"/>
	<path d="M134.354 31.931L133.844 34.843C132.33 34.5576 130.791 34.421 129.25 34.435C126.129 34.435 124.843 35.775 124.843 39.997C124.843 44.685 125.718 46.097 129.25 46.097C130.881 46.1117 132.51 45.9899 134.12 45.733L134.762 48.615C132.923 49.0369 131.04 49.2383 129.153 49.215C122.605 49.215 120.826 46.828 120.826 39.898C120.826 33.492 123.408 31.308 129.153 31.308C130.907 31.2856 132.655 31.4951 134.354 31.931Z" fill="white"/>
	<path d="M149.666 31.465L149.301 34.654C148.63 34.624 148.062 34.624 147.498 34.654C145.953 34.683 144.639 35.323 142.39 37.172V48.672H138.466V31.9H141.616L141.879 34.652C144.766 32.235 146.472 31.332 148.558 31.332C148.932 31.3215 149.305 31.3663 149.666 31.465Z" fill="white"/>
	<path d="M157.057 29.092H152.799V25.205H157.057V29.092ZM156.882 48.674H152.959V31.9H156.882V48.674Z" fill="white"/>
	<path d="M165.342 33.853C167.529 32.004 168.973 31.334 170.708 31.334C176.017 31.334 177.46 33.722 177.46 40.652C177.46 47.16 174.674 49.241 169.965 49.241C167.061 49.1346 164.183 48.6502 161.405 47.8V25.205H165.327V33.853H165.342ZM165.342 36.794V45.442C166.7 45.8756 168.116 46.1012 169.542 46.111C172.356 46.111 173.538 44.772 173.538 40.419C173.538 35.585 172.691 34.144 169.542 34.144C168.331 34.144 167.457 34.683 165.342 36.794Z" fill="white"/>
	<path d="M194.696 33.343C195.834 34.683 196.214 36.765 195.907 39.851L195.807 41.059H184.902C184.975 45.252 185.904 46.388 189.029 46.388C190.915 46.4171 192.794 46.1567 194.6 45.616L195.037 48.295C193.118 48.9694 191.091 49.2853 189.058 49.227C182.612 49.227 180.834 46.839 180.834 39.909C180.834 33.503 183.386 31.32 189.058 31.32C191.547 31.334 193.486 31.931 194.696 33.343ZM184.853 39.079H192.715C192.906 37.8144 192.681 36.5221 192.074 35.396C191.708 34.9517 191.235 34.6077 190.699 34.3963C190.163 34.185 189.582 34.1133 189.011 34.188C186.267 34.188 185.028 35.221 184.853 39.079Z" fill="white"/>
	<path d="M225.029 35.833V48.674H223.177V36.168C223.177 33.955 222.199 32.921 220.216 32.921C218.101 32.921 216.425 33.664 213.639 35.833V48.674H211.758V36.168C211.758 33.955 210.825 32.921 208.798 32.921C206.684 32.921 205.036 33.664 202.221 35.833V48.674H200.369V31.9H201.842L201.973 34.477C204.934 32.162 207.048 31.332 209.367 31.332C211.656 31.332 213.027 32.366 213.465 34.39C216.381 32.148 218.466 31.332 220.785 31.332C223.511 31.334 225.029 32.848 225.029 35.833Z" fill="white"/>
	<path d="M243.49 36.328V48.659H242.018L241.842 45.544C238.488 48.63 237.38 49.227 234.831 49.227C230.966 49.227 229.8 47.32 229.8 44.772C229.8 41.554 231.477 39.778 235.545 39.109C237.194 38.876 239.571 38.701 241.626 38.541V36.43C241.626 33.518 240.153 32.877 237.499 32.877C235.88 32.877 233.708 33.077 231.52 33.314L231.346 31.946C233.482 31.6246 235.633 31.4243 237.792 31.346C240.909 31.334 243.388 32.208 243.49 36.328ZM236.068 40.259C232.874 40.797 231.606 42.108 231.606 44.559C231.606 46.509 232.451 47.776 235.339 47.776C237.525 47.776 238.254 47.339 241.623 44.195V39.764C239.757 39.88 237.54 40.055 236.068 40.259Z" fill="white"/>
	<path d="M252.225 31.9H258.175V33.414H252.265V43.634C252.265 46.954 253.913 47.798 256.232 47.798C257.078 47.798 258.143 47.769 259.149 47.725L259.28 48.963C258.155 49.1361 257.02 49.2237 255.882 49.225C252.921 49.225 250.373 48.089 250.373 43.765V33.4H247.252V32.06L249.673 31.929H250.344V28.277H252.225V31.9Z" fill="white"/>
	<path d="M266.02 27.884H263.831V25.205H266.019L266.02 27.884ZM265.859 48.674H264.007V31.9H265.859V48.674Z" fill="white"/>
	<path d="M284.029 31.931L283.724 33.343C282.122 33.0102 280.488 32.8638 278.853 32.907C274.755 32.907 273.049 34.581 273.049 39.953C273.049 45.922 274.23 47.669 278.853 47.669C280.608 47.7063 282.362 47.5599 284.087 47.232L284.423 48.645C282.582 49.0668 280.697 49.2682 278.809 49.245C272.757 49.245 271.124 46.858 271.124 39.928C271.124 33.522 273.515 31.338 278.809 31.338C280.568 31.2917 282.325 31.4913 284.029 31.931Z" fill="white"/>
	<path d="M291.408 23.138H290.023V27.112H288.772V23.138H287.387V22.162H291.393V23.138H291.408ZM298 27.098H296.833L296.716 24.04L295.797 26.355H294.495L293.577 24.055L293.461 27.112H292.309L292.509 22.177H294.128L295.149 25.045L296.17 22.177H297.789L298 27.098Z" fill="white"/>
	</g>
	<defs>
	<linearGradient id="paint0_linear_1_8" x1="55.707" y1="0.921998" x2="0.579101" y2="56.1392" gradientUnits="userSpaceOnUse">
	<stop stop-color="#258DEB"/>
	<stop offset="1" stop-color="#2563EB"/>
	</linearGradient>
	<linearGradient id="paint1_linear_1_8" x1="78.7036" y1="23.88" x2="23.5757" y2="79.0982" gradientUnits="userSpaceOnUse">
	<stop stop-color="#258DEB"/>
	<stop offset="1" stop-color="#2563EB"/>
	</linearGradient>
	<clipPath id="clip0_1_8">
	<rect width="298" height="76.669" fill="white"/>
	</clipPath>
	</defs>
</svg>